GIL08_slow_grf.mot																		
version=4																		
nRows=87																		
nColumns=19																		
inDegrees=yes																		
endheader																		
																		
time	     ground_force_vx	     ground_force_vy	     ground_force_vz	     ground_force_px	     ground_force_py	     ground_force_pz	     1_ground_force_vx	     1_ground_force_vy	     1_ground_force_vz	     1_ground_force_px	     1_ground_force_py	     1_ground_force_pz	     ground_torque_x	     ground_torque_y	     ground_torque_z	     1_ground_torque_x	    1_ground_torque_y	     1_ground_torque_z
0.21666671	0	0	0	-1.69904846	0	0.049065495	-50.5424094	556.7371357	14.41557115	-2.1081499	0	-0.049065495	0	0	0	0	0.71717896	0
0.22500004	0	0	0	-1.69447913	0	0.048914885	-48.92209086	565.0553458	14.79083776	-2.10793188	0	-0.049051755	0	0	0	0	0.72652063	0
0.23333338	0	0	0	-1.69031042	0	0.048785735	-46.97027716	572.5997771	15.43025453	-2.10767773	0	-0.049096685	0	0	0	0	0.74097546	0
0.2416667	0	0	0	-1.68652979	0	0.048679135	-44.86541451	577.7445253	16.26393408	-2.10741064	0	-0.049192825	0	0	0	0	0.75641376	0
0.25000003	0	0	0	-1.68308533	0	0.048581455	-42.65430321	580.3750888	17.14053886	-2.10714014	0	-0.049314605	0	0	0	0	0.76669513	0
0.25833338	0	0	0	-1.67992993	0	0.048491825	-40.29233503	581.1864541	17.8896829	-2.10686646	0	-0.049427885	0	0	0	0	0.77130664	0
0.26666671	0	0	0	-1.67704199	0	0.048409725	-37.7816006	580.8743803	18.39014371	-2.10657178	0	-0.049512775	0	0	0	0	0.77134528	0
0.27500004	0	0	0	-1.67443958	0	0.048343015	-35.23647436	579.7940721	18.57824174	-2.10624512	0	-0.049562345	0	0	0	0	0.76536432	0
0.28333336	0	0	0	-1.67214453	0	0.048316865	-32.76246923	578.1577037	18.41831215	-2.10588184	0	-0.049580385	0	0	0	0	0.75443481	0
0.29166672	0	0	0	-1.67014258	0	0.048354555	-30.37200789	576.2680289	17.93949355	-2.10547388	0	-0.049570955	0	0	0	0	0.741992	0
0.30000004	0	0	0	-1.66842615	0	0.048459625	-28.03012792	574.3880586	17.27446411	-2.10499341	0	-0.049542545	0	0	0	0	0.73271082	0
0.30833337	0	0	0	-1.666979	0	0.048625155	-25.75082941	572.5544034	16.60612897	-2.1044043	0	-0.049504975	0	0	0	0	0.72666083	0
0.31666672	0	0	0	-1.66575024	0	0.048834445	-23.61559248	570.7517509	16.06110442	-2.10367676	0	-0.049466645	0	0	0	0	0.72140283	0
0.32500005	0	0	0	-1.66469202	0	0.049066835	-21.68868769	569.0519223	15.68692868	-2.10281738	0	-0.049429705	0	0	0	0	0.7140426	0
0.33333337	0	0	0	-1.66378394	0	0.049312045	-19.93606058	567.4913136	15.48242756	-2.1018562	0	-0.049398985	0	0	0	0	0.69839032	0
0.3416667	0	0	0	-1.66302234	0	0.049565525	-18.2642944	566.1162004	15.3986222	-2.10082227	0	-0.049373185	0	0	0	0	0.66795276	0
0.35000002	0	0	0	-1.66240234	0	0.049823215	-16.59759298	565.0540014	15.37392911	-2.09973193	0	-0.049338625	0	0	0	0	0.61609741	0
0.35833338	0	0	0	-1.6619176	0	0.050081815	-14.91827023	564.4507019	15.36640125	-2.09856519	0	-0.049280705	0	0	0	0	0.54087402	0
0.3666667	0	0	0	-1.66155176	0	0.050337675	-13.25123726	564.3424663	15.35515332	-2.0972876	0	-0.049203405	0	0	0	0	0.44463461	0
0.37500006	0	0	0	-1.6612583	0	0.050596465	-11.63132065	564.7149317	15.32276447	-2.09587769	0	-0.049119535	0	0	0	0	0.33060681	0
0.38333338	0	0	0	-1.66100684	0	0.050867825	-10.11049212	565.5642143	15.24061217	-2.09432495	0	-0.049023525	0	0	0	0	0.20691727	0
0.39166671	0	0	0	-1.66079004	0	0.051164305	-8.7238141	566.8673103	15.06436814	-2.0926626	0	-0.048908565	0	0	0	0	0.08067109	0
0.40000004	0	0	0	-1.66060547	0	0.051496825	-7.39621568	568.5902202	14.75283329	-2.09095483	0	-0.048776155	0	0	0	0	-0.04403171	0
0.40833336	0	0	0	-1.66045447	0	0.051858485	-6.00795635	570.6498296	14.29902592	-2.08923828	0	-0.048641725	0	0	0	0	-0.16326508	0
0.41666669	0	0	0	-1.66034656	0	0.052229885	-4.53047175	572.6967773	13.79096167	-2.08749658	0	-0.048529165	0	0	0	0	-0.27504678	0
0.42500004	0	0	0	-1.66028015	0	0.052599515	-3.0327253	574.3648817	13.3603767	-2.08569556	0	-0.048451405	0	0	0	0	-0.38289639	0
0.43333337	0	0	0	-1.66025623	0	0.052963925	-1.61365961	575.5264244	13.09349449	-2.08378638	0	-0.048407535	0	0	0	0	-0.48913593	0
0.44166672	0	0	0	-1.66028223	0	0.053332735	-0.32722112	576.1837678	13.04510496	-2.08172388	0	-0.048393555	0	0	0	0	-0.59262823	0
0.45000005	0	0	0	-1.6603739	0	0.053708375	0.84786938	576.3800454	13.23509859	-2.07951294	0	-0.048401525	0	0	0	0	-0.69155713	0
0.45833337	0	0	0	-1.66054614	0	0.054083435	1.95545115	576.077702	13.6213299	-2.07719702	0	-0.048420475	0	0	0	0	-0.78508795	0
0.4666667	0	0	0	-1.66078418	0	0.054443455	3.01822195	575.231997	14.12356935	-2.07479468	0	-0.048434575	0	0	0	0	-0.87113757	0
0.47500005	0	0	0	-1.66102063	0	0.054777805	4.03934085	573.9097646	14.64703828	-2.07228589	0	-0.048428045	0	0	0	0	-0.94907654	0
0.48333338	0	0	0	-1.66116663	0	0.055078645	5.01321104	572.2920134	15.11176326	-2.06962085	0	-0.048395305	0	0	0	0	-1.01811292	0
0.4916667	0	0	0	-1.66115454	0	0.055348445	5.9025899	570.6630449	15.44784804	-2.06674536	0	-0.048336575	0	0	0	0	-1.07613574	0
0.5	0	0	0	-1.66098462	0	0.055589145	6.62978971	569.3074199	15.59532154	-2.06365771	0	-0.048259645	0	0	0	0	-1.12117078	0
0.50833338	0	0	0	-1.66071179	0	0.055816375	7.17938679	568.3281155	15.54256935	-2.06040869	0	-0.048172445	0	0	0	0	-1.15202686	0
0.51666671	0	0	0	-1.66040442	0	0.056051265	7.63167184	567.641203	15.34449574	-2.05704639	0	-0.048086505	0	0	0	0	-1.16843164	0
0.52500004	0	0	0	-1.66010669	0	0.056305145	8.04389482	567.2471276	15.09059466	-2.05357446	0	-0.048009675	0	0	0	0	-1.17074622	0
0.53333336	0	0	0	-1.6598186	0	0.056574645	8.39331836	567.1946756	14.87353305	-2.04993604	0	-0.047935515	0	0	0	0	-1.16184595	0
0.54166675	0	0	0	-1.659495	0	0.056863285	8.58868278	567.5355128	14.75669904	-2.04607178	0	-0.047836185	0	0	0	0	-1.14878308	0
0.55000007	0	0	0	-1.65907617	0	0.057163545	8.55978511	568.3153227	14.76293931	-2.04197449	0	-0.047707485	0	0	0	0	-1.13411084	0
0.5583334	0	0	0	-1.65854822	0	0.057449555	8.34123988	569.2968936	14.87785309	-2.03771143	0	-0.047603185	0	0	0	0	-1.11042419	0
0.56666672	0	0	0	-1.65793738	0	0.057693175	8.14436182	569.9060207	15.08982468	-2.03342822	0	-0.047613735	0	0	0	0	-1.05957007	0
0.57500005	0	0	0	-1.65726172	0	0.057861115	8.23998406	569.7019509	15.36342047	-2.02930176	0	-0.047805575	0	0	0	0	-0.96703674	0
0.58333337	0	0	0	-1.65652271	0	0.057918025	8.66269104	568.8748007	15.6621791	-2.02537097	0	-0.048146145	0	0	0	0	-0.84476001	0
0.5916667	0	0	0	-1.65572986	0	0.057843685	9.17186565	568.2213332	15.96897137	-2.02149353	0	-0.048483155	0	0	0	0	-0.73211279	0
0.60000002	0	0	0	-1.6549104	0	0.057644315	9.64368993	568.2678447	16.296798	-2.01759595	0	-0.048721525	0	0	0	0	-0.65600903	0
0.60833335	0	0	0	-1.65409412	0	0.057360625	10.14458425	569.016461	16.65855975	-2.01374536	0	-0.048883595	0	0	0	0	-0.61451953	0
0.61666667	0	0	0	-1.65328369	0	0.057057525	10.76225163	570.3536433	17.045481	-2.01001501	0	-0.049014065	0	0	0	0	-0.5951759	0
0.625	0	0	0	-1.65244482	0	0.056788545	11.52643164	572.2864719	17.41593865	-2.00645093	0	-0.049136125	0	0	0	0	-0.59133948	0
0.63333338	0	0	0	-1.65149402	0	0.056581845	12.42221652	574.9006606	17.73627048	-2.0030813	0	-0.049255415	0	0	0	0	-0.59969849	0
0.64166671	0	0	0	-1.65034717	0	0.056462125	13.44390825	578.2729927	18.00075673	-1.99992761	0	-0.049360005	0	0	0	0	-0.61481055	0
0.65000004	0	0	0	-1.64897168	0	0.056460605	14.62917241	582.3270818	18.21840448	-1.99700891	0	-0.049442415	0	0	0	0	-0.63169531	0
0.65833336	0	0	0	-1.64738403	0	0.056597225	16.05546828	586.8455881	18.38992078	-1.99433923	0	-0.049509145	0	0	0	0	-0.64812585	0
0.66666675	0	0	0	-1.64560889	0	0.056855865	17.79133972	591.5951854	18.50475387	-1.99192175	0	-0.049566555	0	0	0	0	-0.66340295	0
0.67500007	0	0	0	-1.64357312	0	0.057189335	19.88417817	596.3661544	18.55623887	-1.98976624	0	-0.049610905	0	0	0	0	-0.67466467	0
0.6833334	0	0	0	-1.64111804	0	0.057553805	22.37622435	600.9968664	18.58718101	-1.98789258	0	-0.049640355	0	0	0	0	-0.67226733	0
0.69166672	0	0	0	-1.63814453	0	0.057940305	25.30641052	605.3751169	18.65797816	-1.98630847	0	-0.049650205	0	0	0	0	-0.64243213	0
0.70000005	0	0	0	-1.63474219	0	0.058342495	28.69267422	609.4270484	18.68150323	-1.98499792	0	-0.049639195	0	0	0	0	-0.5897771	0
0.70833337	0	0	0	-1.63117566	0	0.058745775	32.29468867	613.076477	18.40894728	-1.98391272	0	-0.049599185	0	0	0	0	-0.55137549	0
0.7166667	0	0	0	-1.62775659	0	0.059146655	35.75914557	616.1669789	17.71969495	-1.98298169	0	-0.049526615	0	0	0	0	-0.55127783	0
0.72500002	0	0	0	-1.62466614	0	0.059543515	39.11532455	618.4325906	16.6120146	-1.98215283	0	-0.049412235	0	0	0	0	-0.58726855	0
0.73333335	0	0	0	-1.6219635	0	0.059904005	42.36692962	619.6006778	15.21507734	-1.98137683	0	-0.049264285	0	0	0	0	-0.64520947	0
0.74166673	0	0	0	-1.61973633	0	0.060141895	45.41070224	619.4066462	13.73104696	-1.9806178	0	-0.049098515	0	0	0	0	-0.70771448	0
0.75000006	0	0	0	-1.61789673	0	0.060155565	48.26769249	617.520204	12.37072589	-1.97984814	0	-0.048926455	0	0	0	0	-0.75969019	0
0.75833338	0	0	0	-1.61620374	0	0.059889935	50.95933478	613.5870443	11.27409857	-1.97903992	0	-0.048758465	0	0	0	0	-0.79057935	0
0.76666671	-2.42131673	20.81826182	2.95208861	-1.61457129	0	0.059395245	53.40456704	607.402939	10.47779669	-1.97817688	0	-0.048599605	0	0.06006177	0	0	-0.79400635	0
0.77500004	-4.72729196	60.43258292	6.03632426	-1.61305896	0	0.058826705	55.50466863	598.79603	9.92579745	-1.97726672	0	-0.048441285	0	0.15375842	0	0	-0.7697533	0
0.78333336	-7.11616193	112.7357694	9.12797286	-1.61168945	0	0.058289425	57.18519584	587.4501649	9.51139327	-1.97631885	0	-0.048269045	0	0.27099829	0	0	-0.72112488	0
0.79166669	-10.02519901	155.9637718	11.52986264	-1.61036292	0	0.057766085	58.38782847	572.8578077	9.12530679	-1.97531555	0	-0.048063045	0	0.37230298	0	0	-0.64674548	0
0.80000001	-15.13691664	181.8456991	13.5363468	-1.60891772	0	0.057206485	59.05514721	554.6252022	8.63920199	-1.9742262	0	-0.047802845	0	0.44199268	0	0	-0.54995178	0
0.8083334	-22.41479741	198.154868	15.30365017	-1.60732935	0	0.056658385	59.07780542	532.9749421	7.90614159	-1.97305554	0	-0.047459455	0	0.47729419	0	0	-0.44688354	0
0.81666672	-29.466675	211.9327181	16.61628706	-1.60566187	0	0.056276685	58.33721831	508.5844983	6.8447971	-1.97183936	0	-0.047009155	0	0.47085742	0	0	-0.35004535	0
0.82500005	-33.98157561	227.6116863	17.27151832	-1.6039115	0	0.056167895	56.88622917	482.0313195	5.52067127	-1.97063696	0	-0.046450715	0	0.42609131	0	0	-0.25430121	0
0.83333337	-36.0385602	247.9566312	17.16621105	-1.60188586	0	0.056317565	54.89180816	453.6718689	4.09052748	-1.96951025	0	-0.045792545	0	0.37537695	0	0	-0.14979364	0
0.8416667	-37.63002633	272.327912	16.01639024	-1.59938501	0	0.056636425	52.41390875	423.7231942	2.69592733	-1.96848535	0	-0.045070515	0	0.37817358	0	0	-0.03578125	0
0.85000002	-40.28678101	297.7368774	13.52675641	-1.59646033	0	0.057024445	49.44856293	392.2120811	1.3964155	-1.9675437	0	-0.044348235	0	0.48638818	0	0	0.07698837	0
0.85833335	-43.79170108	322.4302998	9.90050573	-1.59317493	0	0.057424625	46.21108837	358.9808552	0.19754188	-1.96664856	0	-0.043685125	0	0.68770886	0	0	0.17505786	0
0.86666673	-47.35083723	346.6164998	5.53025443	-1.58964062	0	0.057826695	43.03737142	323.9137889	-0.91438462	-1.96579175	0	-0.043127275	0	0.92446863	0	0	0.25219662	0
0.87500006	-50.64311358	370.078226	1.04496493	-1.58612524	0	0.058230625	39.86207325	287.3140471	-1.98408293	-1.96504065	0	-0.042698545	0	1.11819189	0	0	0.30618881	0
0.88333338	-53.38956257	391.2339697	-2.88355459	-1.58293799	0	0.058625945	36.1455389	249.8635703	-3.03025795	-1.96444519	0	-0.042412355	0	1.21869434	0	0	0.33451477	0
0.89166671	-55.0824219	409.1687601	-6.08579041	-1.58025525	0	0.058999965	31.41378434	212.1745563	-3.9591974	-1.96395691	0	-0.042273625	0	1.24805347	0	0	0.33273553	0
0.90000004	-55.65698322	424.9865464	-8.76895262	-1.57805298	0	0.059350675	25.64286738	174.6837292	-4.58719855	-1.96335071	0	-0.042235475	0	1.26346484	0	0	0.29822443	0
0.90833336	-55.62104966	440.581055	-10.94563942	-1.57617859	0	0.059649195	18.93171133	138.4371426	-4.78578872	-1.96220703	0	-0.042145725	0	1.28811865	0	0	0.22908307	0
0.91666669	-55.29980458	457.0238735	-12.34794515	-1.57450818	0	0.059844515	11.63897145	105.455729	-4.58375735	-1.96001685	0	-0.041791135	0	1.30727686	0	0	0.135586	0
0.92500001	-54.60674725	474.2438647	-12.82969591	-1.57303418	0	0.059903625	4.71603047	77.96104197	-4.1391088	-1.95649634	0	-0.040982375	0	1.30368066	0	0	0.04480713	0
0.9333334	-53.4467829	491.4252364	-12.56725709	-1.57178601	0	0.059832705	-0.63646035	57.08673991	-3.64819436	-1.95205151	0	-0.039756075	0	1.27459106	0	0	-0.01776117	0
